<?xml version="1.0" standalone="no"?>
<!DOCTYPE svg PUBLIC "-//W3C//DTD SVG 20010904//EN"
 "http://www.w3.org/TR/2001/REC-SVG-20010904/DTD/svg10.dtd">
<svg version="1.0" xmlns="http://www.w3.org/2000/svg"
 width="1344.000000pt" height="1344.000000pt" viewBox="0 0 1344.000000 1344.000000"
 preserveAspectRatio="xMidYMid meet">
<metadata>
Created by potrace 1.14, written by Peter Selinger 2001-2017
</metadata>
<g transform="translate(0.000000,1344.000000) scale(0.100000,-0.100000)"
fill="#000000" stroke="none">
<path d="M865 12300 c-22 -5 -54 -11 -71 -14 -138 -25 -307 -111 -435 -219
-153 -129 -263 -308 -322 -521 l-22 -81 0 -4750 0 -4750 28 -99 c50 -177 130
-317 252 -440 87 -88 102 -100 195 -158 96 -59 205 -102 322 -127 91 -19 188
-20 5908 -20 5967 0 5827 -1 5983 33 51 12 180 67 246 106 137 80 273 218 355
359 51 88 70 135 113 276 17 57 18 261 20 4790 2 4653 1 4732 -18 4823 -74
354 -324 636 -664 750 -163 55 276 51 -6035 51 -3198 -1 -5833 -5 -5855 -9z
m11718 -609 c109 -43 195 -129 239 -240 22 -55 22 -64 25 -543 l2 -488 -6123
0 -6123 0 1 488 c2 480 2 488 25 545 52 131 171 232 304 256 23 4 2641 7 5817
6 l5775 -1 58 -23z m264 -5763 l-2 -3893 -23 -58 c-45 -110 -130 -194 -241
-239 l-56 -23 -5800 0 -5800 0 -56 23 c-112 45 -197 130 -240 239 l-23 58 -2
3893 -1 3892 6123 0 6122 0 -1 -3892z"/>
<path d="M1275 11347 c-96 -32 -171 -98 -214 -187 -22 -47 -26 -68 -26 -145 0
-78 4 -97 28 -147 35 -72 94 -130 166 -166 48 -23 68 -27 146 -27 78 0 97 4
147 28 72 35 130 93 165 165 24 50 28 69 28 147 0 76 -4 98 -26 145 -33 70
-94 131 -164 165 -65 32 -186 43 -250 22z"/>
<path d="M2070 11342 c-71 -27 -103 -47 -149 -97 -65 -70 -84 -123 -85 -230
-1 -79 3 -96 27 -145 37 -72 96 -131 165 -166 50 -25 68 -28 147 -28 79 -1 97
3 145 27 263 134 265 493 4 621 -72 35 -184 43 -254 18z"/>
<path d="M2828 11344 c-88 -31 -160 -96 -205 -184 -24 -48 -28 -66 -28 -145 0
-79 4 -97 28 -145 37 -72 97 -133 166 -167 49 -24 68 -28 146 -27 105 0 160
20 231 86 191 176 129 487 -116 578 -48 17 -177 20 -222 4z"/>
<path d="M7233 8733 c-11 -43 -107 -386 -213 -763 -237 -843 -370 -1320 -375
-1340 -2 -8 -16 -55 -30 -105 -14 -49 -39 -137 -55 -195 -15 -58 -49 -179 -75
-270 -26 -91 -51 -178 -55 -195 -4 -16 -67 -239 -138 -495 -300 -1065 -424
-1506 -427 -1520 -3 -13 -148 -530 -161 -573 -5 -16 10 -17 262 -15 l267 3 23
80 c12 44 48 172 79 285 86 311 221 793 252 900 15 52 28 100 29 106 1 7 19
70 39 140 20 71 52 185 71 254 19 69 43 154 54 190 10 36 42 148 70 250 28
102 67 240 86 308 19 67 50 178 69 247 19 69 51 182 71 253 20 70 37 134 39
142 2 8 13 49 25 90 23 79 78 275 85 300 10 37 59 213 120 430 37 129 73 258
80 285 17 65 121 437 190 680 80 284 115 408 120 430 3 11 14 51 25 90 11 38
20 73 20 77 0 5 -119 8 -263 8 l-264 0 -20 -77z"/>
<path d="M5125 7754 c-82 -35 -215 -92 -295 -126 -80 -33 -174 -73 -210 -88
-93 -40 -423 -179 -645 -272 -212 -89 -208 -87 -288 -122 -32 -14 -60 -26 -62
-26 -3 0 -24 -9 -48 -19 -23 -11 -130 -56 -237 -101 -107 -45 -213 -90 -235
-100 -22 -10 -80 -34 -130 -55 -49 -20 -106 -44 -125 -52 -19 -8 -44 -19 -55
-23 -11 -5 -51 -22 -90 -38 -38 -17 -259 -110 -490 -207 -231 -98 -435 -184
-453 -191 l-32 -14 2 -312 3 -311 160 -68 c88 -37 183 -78 210 -89 28 -12 219
-94 425 -182 206 -88 389 -166 405 -173 17 -8 280 -120 585 -250 305 -130 573
-245 595 -255 22 -9 117 -50 210 -90 94 -39 188 -80 210 -90 22 -9 85 -36 140
-60 96 -40 147 -62 190 -81 23 -10 394 -169 411 -175 7 -3 10 98 10 325 l0
330 -45 19 c-125 53 -1209 501 -1516 627 -44 18 -163 67 -265 110 -102 42
-273 112 -380 156 -107 44 -208 86 -225 94 -16 7 -70 29 -120 49 -49 20 -99
41 -110 45 -30 13 -107 46 -133 57 -20 8 28 31 340 158 559 229 602 246 623
256 11 5 81 34 155 64 221 88 653 266 687 281 17 8 34 15 38 15 3 0 25 9 48
19 23 10 89 38 147 61 58 23 119 48 135 55 17 7 82 34 145 59 63 26 124 51
135 56 11 5 87 37 170 70 82 33 154 65 160 71 10 10 16 660 6 658 -4 0 -73
-30 -156 -65z"/>
<path d="M8190 7490 l0 -330 27 -11 c15 -6 41 -16 58 -24 16 -7 104 -44 195
-80 210 -86 327 -134 365 -150 17 -8 55 -23 85 -35 60 -23 257 -104 305 -125
17 -7 91 -38 165 -68 368 -150 487 -198 505 -207 11 -5 97 -40 190 -78 574
-232 915 -376 903 -383 -7 -4 -233 -98 -503 -209 -269 -111 -503 -208 -520
-216 -16 -7 -68 -29 -115 -47 -47 -19 -98 -40 -115 -47 -16 -7 -43 -19 -60
-25 -16 -7 -174 -72 -350 -145 -443 -183 -670 -277 -735 -304 -30 -13 -62 -26
-70 -29 -8 -3 -85 -35 -170 -70 l-155 -63 -3 -332 -2 -332 32 14 c398 169 520
221 553 236 22 10 112 48 199 85 88 37 180 76 205 87 53 24 28 13 381 163 151
64 289 122 305 130 17 7 201 86 410 175 209 89 398 170 420 180 22 10 180 78
350 150 171 72 334 142 363 156 29 13 55 24 57 24 2 0 29 11 59 25 30 14 57
25 60 25 3 0 30 11 60 25 30 14 59 25 64 25 5 0 16 7 23 17 11 13 14 77 15
314 0 164 -2 302 -5 307 -3 4 -112 52 -241 106 -129 54 -263 111 -298 127 -35
16 -68 29 -73 29 -5 0 -17 4 -27 10 -18 10 -61 28 -552 235 -304 128 -365 154
-415 176 -11 5 -123 52 -250 105 -249 104 -266 111 -337 143 -26 11 -50 21
-53 21 -3 0 -27 10 -53 21 -68 31 -131 57 -1219 516 l-33 13 0 -330z"/>
</g>
</svg>
