<?xml version="1.0" standalone="no"?>
<!DOCTYPE svg PUBLIC "-//W3C//DTD SVG 20010904//EN"
 "http://www.w3.org/TR/2001/REC-SVG-20010904/DTD/svg10.dtd">
<svg version="1.0" xmlns="http://www.w3.org/2000/svg"
 width="512.000000pt" height="512.000000pt" viewBox="0 0 512.000000 512.000000"
 preserveAspectRatio="xMidYMid meet">
<metadata>
Created by potrace 1.14, written by Peter Selinger 2001-2017
</metadata>
<g transform="translate(0.000000,512.000000) scale(0.100000,-0.100000)"
fill="#000000" stroke="none">
<path d="M348 5101 c-155 -50 -270 -177 -301 -333 -17 -87 -15 -4208 2 -4281
42 -178 209 -320 391 -333 19 -1 128 -3 241 -3 l206 -1 -3 -27 c-3 -31 16 -82
37 -100 8 -7 33 -15 54 -18 37 -6 47 -2 120 49 128 90 111 89 218 15 77 -54
99 -64 134 -64 58 0 93 35 100 99 l6 46 1201 1 c660 0 1210 2 1220 4 11 2 31
12 45 23 51 38 54 52 55 381 l1 306 465 5 c506 5 490 4 525 63 16 27 18 63 19
351 1 177 -1 332 -4 346 -4 14 -20 34 -38 45 l-31 20 -1 95 0 95 29 13 c17 7
33 25 38 40 5 15 8 581 8 1257 -2 1341 2 1265 -58 1309 -28 21 -39 21 -470 23
-243 0 -452 1 -464 2 -21 1 -21 2 -21 250 0 223 -2 253 -18 280 -39 66 98 61
-1866 60 -1699 0 -1786 -1 -1840 -18z"/>
</g>
</svg>
